<svg xmlns="http://www.w3.org/2000/svg" viewBox="0 0 410 404" role="img" aria-label="Vite logo placeholder">
  <defs>
    <linearGradient id="a" x1="0" y1="0" x2="1" y2="1">
      <stop offset="0" stop-color="#41d1ff"/>
      <stop offset="1" stop-color="#bd34fe"/>
    </linearGradient>
    <linearGradient id="b" x1="0" y1="0" x2="1" y2="1">
      <stop offset="0" stop-color="#ffea83"/>
      <stop offset="0.6" stop-color="#ffdd35"/>
      <stop offset="1" stop-color="#ffa800"/>
    </linearGradient>
  </defs>
  <path d="M399 59 220 380a18 18 0 0 1-31 0L11 59a18 18 0 0 1 20-25l165 31a18 18 0 0 0 6 0l165-31a18 18 0 0 1 20 25Z" fill="url(#a)"/>
  <path d="M292 10 170 33a12 12 0 0 0-9 9l-23 122a12 12 0 0 0 14 14l122-23a12 12 0 0 0 9-9l23-122A12 12 0 0 0 292 10Z" fill="url(#b)"/>
</svg>
