<?xml version="1.0" encoding="utf-8"?>
<!-- Generator: Adobe Illustrator 23.0.1, SVG Export Plug-In . SVG Version: 6.00 Build 0)  -->
<svg version="1.1" id="Layer_1" xmlns="http://www.w3.org/2000/svg" xmlns:xlink="http://www.w3.org/1999/xlink" x="0px" y="0px"
	 viewBox="0 0 105 112" style="enable-background:new 0 0 105 112;" xml:space="preserve">
<style type="text/css">
	.st0{fill:#FFFFFF;}
	.st1{fill:#FFD530;}
</style>
<g id="ARNG_Logo">
	<path d="M51.54,91.8L22.5,79.13c-1.46-0.64-2.4-2.08-2.4-3.67V22.4c0-1.33,1.07-2.4,2.4-2.4h60c1.33,0,2.4,1.07,2.4,2.4v53.07
		c0,1.59-0.94,3.03-2.4,3.67L53.46,91.8C52.85,92.07,52.15,92.07,51.54,91.8z"/>
	<path class="st0" d="M72.33,67.89H69.2V57.4h3.28c3,0,5.22,1.41,5.22,5.25C77.7,66.33,75.03,67.89,72.33,67.89z M72.41,59.43H71.3
		v6.41h1.03c2.2,0,3.21-1.29,3.21-3.21C75.54,60.5,74.63,59.43,72.41,59.43z M64.7,67.89l-1.88-3.78h-2.11v3.78h-2.1V57.4h4.89
		c1.98,0,3.61,1.09,3.61,3.33c0,1.57-0.68,2.56-2.01,3.09l2.01,4.08H64.7z M63.45,59.43h-2.74v2.7h2.74c0.97,0,1.5-0.45,1.5-1.36
		C64.95,59.82,64.38,59.43,63.45,59.43z M54.83,67.89l-0.82-2.34h-3.84l-0.83,2.34H47.1l4.02-10.49h2.04l3.99,10.49H54.83z
		 M52.62,61.65c-0.21-0.62-0.42-1.24-0.52-1.63c-0.1,0.39-0.32,1.02-0.53,1.63l-0.68,1.9h2.4L52.62,61.65z M41.96,68.05
		c-2.53,0-4.24-1.71-4.24-4.77V57.4h2.1v5.86c0,1.68,0.81,2.74,2.14,2.74c1.33,0,2.16-1.03,2.16-2.71V57.4h2.1v5.86
		C46.22,66.3,44.63,68.05,41.96,68.05z M31.84,68.05c-2.74,0-4.58-2.1-4.58-5.41c0-3.19,1.92-5.41,4.66-5.41
		c2.14,0,3.28,1,3.97,2.62l-1.99,0.83c-0.39-0.78-0.87-1.36-2.01-1.36c-1.57,0-2.47,1.38-2.47,3.33c0,1.93,0.91,3.36,2.49,3.36
		c1.44,0,1.93-0.67,2.05-1.59h-1.66v-1.96h3.76v1.38C36.06,66.52,34.27,68.05,31.84,68.05z M72.44,48.35h1.4v5.34h3.51V55h-4.91
		V48.35z M67.36,48.35h1.36L71.38,55h-1.54l-0.55-1.48h-2.56L66.18,55h-1.5L67.36,48.35z M68.01,50.01l-0.8,2.24h1.6L68.01,50.01z
		 M57.88,48.35h1.34l2.48,3.52c0.17,0.25,0.4,0.58,0.49,0.75c0-0.25-0.02-1.08-0.02-1.45v-2.81h1.38V55h-1.25l-2.57-3.63
		c-0.17-0.25-0.4-0.58-0.49-0.75c0,0.25,0.02,1.08,0.02,1.45V55h-1.38V48.35z M53.59,48.24c1.91,0,3.04,1.41,3.04,3.43
		c0,2.02-1.13,3.43-3.04,3.43c-1.91,0-3.04-1.41-3.04-3.43C50.55,49.65,51.68,48.24,53.59,48.24z M53.59,49.56
		c-1.13,0-1.6,0.92-1.6,2.11c0,1.19,0.47,2.11,1.6,2.11s1.6-0.92,1.6-2.11C55.19,50.48,54.72,49.56,53.59,49.56z M47.71,48.35h1.4
		V55h-1.4V48.35z M40.93,48.35h5.42v1.31h-2.01V55h-1.4v-5.34h-2.01V48.35z M37.15,48.35h1.36L41.17,55h-1.54l-0.55-1.48h-2.56
		L35.97,55h-1.5L37.15,48.35z M37.8,50.01L37,52.25h1.6L37.8,50.01z M27.65,48.35h1.34l2.48,3.52c0.17,0.25,0.4,0.58,0.49,0.75
		c0-0.25-0.02-1.08-0.02-1.45v-2.81h1.38V55h-1.25l-2.57-3.63c-0.17-0.25-0.4-0.58-0.49-0.75c0,0.25,0.02,1.08,0.02,1.45V55h-1.38
		V48.35z"/>
	<path class="st1" d="M54.59,80.99l3.38-2.45h-4.18l-1.29-3.98l-1.29,3.98h-4.18l3.38,2.45l-1.29,3.97l3.38-2.46l3.38,2.46
		L54.59,80.99z M70.34,41.67v4.29h2.31v-4.34L77.01,35h-2.62l-2.88,4.75L68.62,35h-2.65L70.34,41.67z M53.25,45.97h2.26v-4.03
		c0-0.6-0.03-1.99-0.03-2.41c0.16,0.41,0.51,1.19,0.81,1.82l2.34,4.87l2.34-4.87c0.3-0.63,0.65-1.41,0.81-1.82
		c0,0.42-0.03,1.82-0.03,2.41v4.03h2.31V35h-2.27l-2.33,4.97c-0.3,0.63-0.63,1.43-0.78,1.83c-0.15-0.39-0.49-1.22-0.79-1.83
		L55.48,35h-2.23V45.97z M40.93,45.97h2.31v-3.95h2.33l2.06,3.95h2.65l-2.21-4.26c1.46-0.55,2.21-1.58,2.21-3.23
		c0-2.34-1.8-3.48-3.98-3.48h-5.38V45.97z M47.9,38.53c0,0.95-0.58,1.43-1.65,1.43h-3.02v-2.82h3.02
		C47.28,37.13,47.9,37.54,47.9,38.53z M27.65,45.97h2.48l0.9-2.44h4.22l0.9,2.44h2.54L34.31,35h-2.24L27.65,45.97z M34.46,41.44
		h-2.64l1.32-3.7L34.46,41.44z M77.7,32.6H27.3v-1h50.4V32.6z M77.7,70.49H27.3v1h50.4V70.49z"/>
	<path class="st0" d="M44.07,25.03v3.68h-0.92v-3.68h-1.32v-0.9h3.55v0.9H44.07z M46.24,28.71v-4.58h3.18v0.9h-2.27v0.79h1.32v0.89
		h-1.32v1.11h2.36v0.9H46.24z M53.08,28.71l-0.41-0.69c-0.16-0.27-0.41-0.73-0.5-0.9c-0.08,0.17-0.33,0.61-0.5,0.9l-0.41,0.69h-1.09
		l1.45-2.34l-1.39-2.24h1.09l0.35,0.59c0.16,0.27,0.41,0.73,0.5,0.9c0.08-0.17,0.33-0.61,0.5-0.9l0.35-0.59h1.09l-1.39,2.24
		l1.46,2.34H53.08z M58.08,28.71l-0.36-1.02h-1.68l-0.36,1.02H54.7l1.75-4.58h0.89l1.74,4.58H58.08z M57.11,25.98
		c-0.09-0.27-0.18-0.54-0.23-0.71c-0.05,0.17-0.14,0.44-0.23,0.71l-0.29,0.83h1.05L57.11,25.98z M61.3,28.78
		c-0.77,0-1.43-0.32-1.78-0.83l0.66-0.59c0.32,0.37,0.73,0.52,1.17,0.52c0.54,0,0.8-0.15,0.8-0.5c0-0.29-0.16-0.43-1.02-0.62
		c-0.84-0.2-1.43-0.46-1.43-1.37c0-0.83,0.73-1.34,1.64-1.34c0.71,0,1.24,0.27,1.67,0.72l-0.66,0.64c-0.29-0.3-0.62-0.47-1.04-0.47
		c-0.49,0-0.65,0.21-0.65,0.41c0,0.29,0.2,0.38,0.92,0.55c0.73,0.17,1.53,0.42,1.53,1.41C63.11,28.19,62.55,28.78,61.3,28.78z"/>
</g>
</svg>
